<svg xmlns="http://www.w3.org/2000/svg" xmlns:xlink="http://www.w3.org/1999/xlink" viewBox="0,0,256,256" width="96px" height="96px"><g fill="#ffffff" fill-rule="nonzero" stroke="none" stroke-width="1" stroke-linecap="butt" stroke-linejoin="miter" stroke-miterlimit="10" stroke-dasharray="" stroke-dashoffset="0" font-family="none" font-weight="none" font-size="none" text-anchor="none" style="mix-blend-mode: normal"><g transform="scale(5.33333,5.33333)"><path d="M8,16v20.5c0,3.584 2.916,6.5 6.5,6.5h19c3.584,0 6.5,-2.916 6.5,-6.5v-20.5zM28.5,25h-9c-0.829,0 -1.5,-0.672 -1.5,-1.5c0,-0.828 0.671,-1.5 1.5,-1.5h9c0.829,0 1.5,0.672 1.5,1.5c0,0.828 -0.671,1.5 -1.5,1.5zM39.5,14h-31c-1.378,0 -2.5,-1.121 -2.5,-2.5v-4c0,-1.379 1.122,-2.5 2.5,-2.5h31c1.378,0 2.5,1.121 2.5,2.5v4c0,1.379 -1.122,2.5 -2.5,2.5z"></path></g></g></svg>